<svg width="65" height="64" viewBox="0 0 65 64" fill="none" xmlns="http://www.w3.org/2000/svg">
<g clip-path="url(#clip0_1_117)">
<path d="M58.2468 8.0542H6.34767C3.04545 8.0542 0.359253 10.7404 0.359253 14.0426V49.9728C0.359253 53.2751 3.04545 55.9613 6.34767 55.9613H58.2468C61.549 55.9613 64.2352 53.2751 64.2352 49.9728V14.0426C64.2352 10.7404 61.549 8.0542 58.2468 8.0542ZM58.2468 12.0464C58.518 12.0464 58.776 12.1027 59.0119 12.201L32.2973 35.3547L5.58245 12.201C5.81832 12.1028 6.07633 12.0464 6.34754 12.0464H58.2468ZM58.2468 51.9689H6.34767C5.24631 51.9689 4.35149 51.0742 4.35149 49.9727V16.4188L30.9892 39.5049C31.3655 39.8303 31.8314 39.9922 32.2973 39.9922C32.7631 39.9922 33.229 39.8305 33.6053 39.5049L60.243 16.4188V49.9728C60.2429 51.0742 59.3482 51.9689 58.2468 51.9689Z" fill="#FBFBFE"/>
</g>
<defs>
<clipPath id="clip0_1_117">
<rect width="63.876" height="63.876" fill="white" transform="translate(0.358902 0.0691528)"/>
</clipPath>
</defs>
</svg>
