<?xml version="1.0" standalone="no"?>
<!DOCTYPE svg PUBLIC "-//W3C//DTD SVG 20010904//EN"
 "http://www.w3.org/TR/2001/REC-SVG-20010904/DTD/svg10.dtd">
<svg version="1.0" xmlns="http://www.w3.org/2000/svg"
 width="50.000000pt" height="50.000000pt" viewBox="0 0 50.000000 50.000000"
 preserveAspectRatio="xMidYMid meet">

<g transform="translate(0.000000,50.000000) scale(0.100000,-0.100000)"
fill="#000000" stroke="none">
<path d="M203 470 c-12 -5 -27 -18 -32 -29 -10 -17 -23 -21 -89 -23 l-77 -3 0
-195 0 -195 245 0 245 0 0 195 0 195 -75 3 c-66 3 -77 6 -95 28 -22 28 -84 40
-122 24z m98 -30 l24 -19 -75 0 -75 0 24 19 c13 11 36 20 51 20 15 0 38 -9 51
-20z m179 -135 l0 -95 -89 0 c-70 0 -90 3 -95 15 -8 21 -84 21 -92 0 -5 -12
-25 -15 -95 -15 l-89 0 0 95 0 95 230 0 230 0 0 -95z m-200 -105 c0 -16 -7
-20 -30 -20 -23 0 -30 4 -30 20 0 16 7 20 30 20 23 0 30 -4 30 -20z m-76 -25
c8 -21 84 -21 92 0 5 12 25 15 95 15 l89 0 0 -75 0 -75 -230 0 -230 0 0 75 0
75 89 0 c70 0 90 -3 95 -15z"/>
</g>
</svg>
