<?xml version="1.0" standalone="no"?>
<!DOCTYPE svg PUBLIC "-//W3C//DTD SVG 20010904//EN"
 "http://www.w3.org/TR/2001/REC-SVG-20010904/DTD/svg10.dtd">
<svg version="1.0" xmlns="http://www.w3.org/2000/svg"
 width="50.000000pt" height="50.000000pt" viewBox="0 0 50.000000 50.000000"
 preserveAspectRatio="xMidYMid meet">

<g transform="translate(0.000000,50.000000) scale(0.100000,-0.100000)"
fill="#000000" stroke="none">
<path d="M130 399 c-109 -86 -143 -120 -106 -106 14 6 16 -8 16 -128 l0 -135
210 0 210 0 0 135 c0 120 2 134 16 128 38 -14 3 21 -106 106 -63 50 -117 91
-120 91 -3 0 -57 -41 -120 -91z m220 -10 l90 -71 0 -134 0 -134 -190 0 -190 0
0 134 0 134 87 70 c49 39 94 71 101 71 7 1 53 -31 102 -70z"/>
<path d="M170 294 c-91 -55 -85 -50 -71 -68 6 -8 10 -38 9 -72 -2 -47 0 -59
12 -59 11 0 15 11 13 48 -1 26 3 47 8 47 5 0 9 -7 9 -15 0 -21 41 -35 100 -35
57 0 100 14 100 33 0 7 14 23 30 35 17 13 30 26 30 30 0 8 -149 102 -161 102
-3 0 -38 -21 -79 -46z m154 -19 c47 -30 55 -39 45 -51 -10 -12 -13 -12 -25 3
-10 15 -28 18 -94 18 -66 0 -84 -3 -94 -18 -12 -15 -15 -15 -25 -3 -10 12 -1
22 51 55 35 22 68 39 74 37 6 -2 36 -21 68 -41z m-10 -51 c9 -3 16 -11 16 -18
0 -7 -27 -11 -80 -11 -54 0 -80 4 -80 12 0 6 6 14 13 16 18 8 113 8 131 1z
m-4 -54 c0 -6 -27 -10 -60 -10 -33 0 -60 4 -60 10 0 6 27 10 60 10 33 0 60 -4
60 -10z"/>
</g>
</svg>
