<svg width="65" height="65" viewBox="0 0 65 65" fill="none" xmlns="http://www.w3.org/2000/svg">
<g clip-path="url(#clip0_1_114)">
<path d="M30.2067 58.3204L30.1926 58.2968L30.1778 58.2738C28.389 55.4912 25.6113 51.1263 22.8335 46.5636C22.6281 46.1939 22.4249 45.8285 22.224 45.4673C19.4839 40.5399 17.1739 36.386 15.5448 32.5847L15.5361 32.5644L15.5269 32.5443C13.3484 27.7912 12.2949 24.0947 12.2949 21.9057C12.2949 11.1085 21.0819 2.32151 31.8791 2.32151C42.6763 2.32151 51.4633 11.1085 51.4633 21.9057C51.4633 24.098 50.4097 27.7912 48.2232 32.7617C46.4515 36.6982 44.0871 41.4271 40.9321 46.7512L40.932 46.7512L40.9259 46.7617C38.1482 51.5234 35.3783 55.8745 33.614 58.4229L33.5811 58.4704L33.5514 58.52C33.3337 58.8829 33.1202 59.2106 32.8989 59.5505C32.8366 59.6461 32.7737 59.7427 32.7099 59.8413C32.4523 60.2393 32.1779 60.6738 31.9419 61.1301L31.9388 61.1348L31.8318 60.9609C31.5924 60.4935 31.3115 60.0486 31.0482 59.6417C30.9844 59.543 30.9215 59.4464 30.8592 59.3507C30.6378 59.0109 30.4244 58.6832 30.2067 58.3204ZM15.8917 32.6206L15.8974 32.6333L15.9034 32.6459C17.722 36.4851 20.1369 41.1122 23.142 46.5213L23.1591 46.5521L23.1774 46.5822C23.7659 47.549 24.3488 48.5125 24.9195 49.4559C27.0305 52.9453 28.975 56.1596 30.4202 58.2471L31.9337 60.4333L33.3716 58.1966C35.1801 55.3833 37.7842 51.1766 40.5807 46.5822L40.5916 46.5644L40.602 46.5463C43.6151 41.3236 46.04 36.6789 47.8678 32.6177C49.8829 28.1839 51.0197 24.301 51.0197 21.9057V21.8872L51.0193 21.8688C50.8003 11.3567 42.2607 2.7651 31.8791 2.7651C21.3177 2.7651 12.7384 11.3444 12.7384 21.9057C12.7384 24.3015 13.8758 28.1856 15.8917 32.6206Z" stroke="#FBFBFE" stroke-width="3.54867"/>
<path d="M31.2802 30.3116C27.4695 30.3116 24.2716 27.1138 24.2716 23.303C24.2716 19.4923 27.4695 16.2944 31.2802 16.2944C35.091 16.2944 38.2888 19.4923 38.2888 23.303C38.2888 27.1138 35.091 30.3116 31.2802 30.3116ZM31.2802 16.738C27.7053 16.738 24.7152 19.7281 24.7152 23.303C24.7152 26.8779 27.7053 29.8681 31.2802 29.8681C34.8551 29.8681 37.8453 26.8779 37.8453 23.303C37.8453 19.7281 34.8551 16.738 31.2802 16.738Z" stroke="#FBFBFE" stroke-width="3.54867"/>
</g>
<defs>
<clipPath id="clip0_1_114">
<rect width="63.876" height="63.876" fill="white" transform="translate(0.539902 0.54718)"/>
</clipPath>
</defs>
</svg>
