<svg width="65" height="64" viewBox="0 0 65 64" fill="none" xmlns="http://www.w3.org/2000/svg">
<g clip-path="url(#clip0_1_111)">
<path d="M44.9029 0.448151H19.6909C16.2168 0.448151 13.3879 3.27699 13.3879 6.75115V57.1751C13.3879 60.6518 16.2168 63.4781 19.6909 63.4781H44.9029C48.3797 63.4781 51.2059 60.6518 51.2059 57.1751V6.75115C51.2059 3.27699 48.3797 0.448151 44.9029 0.448151ZM48.6847 57.1751C48.6847 59.2601 46.9879 60.9569 44.9029 60.9569H19.6909C17.6059 60.9569 15.9091 59.2601 15.9091 57.1751V6.75115C15.9091 4.66611 17.6059 2.96935 19.6909 2.96935H44.9029C46.9879 2.96935 48.6847 4.66611 48.6847 6.75115V57.1751Z" fill="#FBFBFE"/>
<path fill-rule="evenodd" clip-rule="evenodd" d="M12.9649 6.75116C12.9649 3.04338 15.9831 0.0251465 19.6909 0.0251465H44.9029C48.6133 0.0251465 51.6289 3.04349 51.6289 6.75116V57.1751C51.6289 60.8855 48.6132 63.9011 44.9029 63.9011H19.6909C15.9832 63.9011 12.9649 60.8856 12.9649 57.1751V6.75116ZM19.6909 0.871192C16.4504 0.871192 13.8109 3.51064 13.8109 6.75116V57.1751C13.8109 60.4181 16.4503 63.0551 19.6909 63.0551H44.9029C48.146 63.0551 50.7828 60.4182 50.7828 57.1751V6.75116C50.7828 3.51052 48.1459 0.871192 44.9029 0.871192H19.6909ZM19.6909 3.39239C17.8395 3.39239 16.3321 4.89976 16.3321 6.75116V57.1751C16.3321 59.0265 17.8395 60.5339 19.6909 60.5339H44.9029C46.7543 60.5339 48.2616 59.0265 48.2616 57.1751V6.75116C48.2616 4.89976 46.7543 3.39239 44.9029 3.39239H19.6909ZM15.4861 6.75116C15.4861 4.4325 17.3722 2.54634 19.6909 2.54634H44.9029C47.2215 2.54634 49.1077 4.4325 49.1077 6.75116V57.1751C49.1077 59.4938 47.2215 61.3799 44.9029 61.3799H19.6909C17.3722 61.3799 15.4861 59.4938 15.4861 57.1751V6.75116Z" fill="#FBFBFE"/>
<path d="M34.8182 5.49045H29.7758C29.0799 5.49045 28.5152 6.05526 28.5152 6.75105C28.5152 7.44684 29.08 8.01165 29.7758 8.01165H34.8182C35.514 8.01165 36.0788 7.44684 36.0788 6.75105C36.0788 6.05526 35.514 5.49045 34.8182 5.49045Z" fill="#FBFBFE"/>
<path fill-rule="evenodd" clip-rule="evenodd" d="M28.0921 6.75107C28.0921 5.82167 28.8461 5.06744 29.7757 5.06744H34.8181C35.7475 5.06744 36.5017 5.82165 36.5017 6.75107C36.5017 7.68049 35.7475 8.43469 34.8181 8.43469H29.7757C28.8463 8.43469 28.0921 7.68049 28.0921 6.75107ZM29.7757 5.91349C29.3135 5.91349 28.9381 6.28888 28.9381 6.75107C28.9381 7.21323 29.3135 7.58864 29.7757 7.58864H34.8181C35.2803 7.58864 35.6557 7.21323 35.6557 6.75107C35.6557 6.2889 35.2803 5.91349 34.8181 5.91349H29.7757Z" fill="#FBFBFE"/>
<path d="M32.2969 55.9145C31.6011 55.9145 31.0363 56.4793 31.0363 57.1751C31.0363 57.8709 31.6011 58.4357 32.2969 58.4357C32.9927 58.4357 33.5575 57.8709 33.5575 57.1751C33.5575 56.4793 32.9927 55.9145 32.2969 55.9145Z" fill="#2A3B47" stroke="#FBFBFE" stroke-width="1.41947"/>
<path fill-rule="evenodd" clip-rule="evenodd" d="M30.6133 57.1751C30.6133 56.2457 31.3675 55.4915 32.2969 55.4915C33.2264 55.4915 33.9806 56.2457 33.9806 57.1751C33.9806 58.1045 33.2264 58.8587 32.2969 58.8587C31.3675 58.8587 30.6133 58.1045 30.6133 57.1751ZM32.2969 56.3375C31.8347 56.3375 31.4593 56.713 31.4593 57.1751C31.4593 57.6373 31.8347 58.0127 32.2969 58.0127C32.7591 58.0127 33.1345 57.6373 33.1345 57.1751C33.1345 56.713 32.7591 56.3375 32.2969 56.3375Z" fill="#2A3B47" stroke="#FBFBFE" stroke-width="1.41947"/>
<path d="M49.9453 10.533H14.6485C13.9526 10.533 13.3879 11.0978 13.3879 11.7936C13.3879 12.4895 13.9526 13.0542 14.6485 13.0542H49.9453C50.6411 13.0542 51.2059 12.4894 51.2059 11.7936C51.2059 11.0978 50.6411 10.533 49.9453 10.533Z" fill="#FBFBFE"/>
<path fill-rule="evenodd" clip-rule="evenodd" d="M12.9649 11.7936C12.9649 10.8642 13.7189 10.11 14.6485 10.11H49.9453C50.8747 10.11 51.6289 10.8642 51.6289 11.7936C51.6289 12.723 50.8747 13.4772 49.9453 13.4772H14.6485C13.719 13.4772 12.9649 12.7231 12.9649 11.7936ZM14.6485 10.956C14.1862 10.956 13.8109 11.3314 13.8109 11.7936C13.8109 12.2559 14.1862 12.6312 14.6485 12.6312H49.9453C50.4074 12.6312 50.7828 12.2557 50.7828 11.7936C50.7828 11.3314 50.4074 10.956 49.9453 10.956H14.6485Z" fill="#FBFBFE"/>
<path d="M49.9453 50.8722H14.6485C13.9526 50.8722 13.3879 51.437 13.3879 52.1328C13.3879 52.8286 13.9526 53.3934 14.6485 53.3934H49.9453C50.6411 53.3934 51.2059 52.8286 51.2059 52.1328C51.2059 51.437 50.6411 50.8722 49.9453 50.8722Z" fill="#FBFBFE"/>
<path fill-rule="evenodd" clip-rule="evenodd" d="M12.9649 52.1328C12.9649 51.2034 13.7189 50.4492 14.6485 50.4492H49.9453C50.8747 50.4492 51.6289 51.2034 51.6289 52.1328C51.6289 53.0622 50.8747 53.8164 49.9453 53.8164H14.6485C13.7189 53.8164 12.9649 53.0622 12.9649 52.1328ZM14.6485 51.2952C14.1862 51.2952 13.8109 51.6706 13.8109 52.1328C13.8109 52.595 14.1862 52.9704 14.6485 52.9704H49.9453C50.4074 52.9704 50.7828 52.595 50.7828 52.1328C50.7828 51.6706 50.4074 51.2952 49.9453 51.2952H14.6485Z" fill="#FBFBFE"/>
</g>
<defs>
<clipPath id="clip0_1_111">
<rect width="63.876" height="63.876" fill="white" transform="translate(0.358902 0.0251465)"/>
</clipPath>
</defs>
</svg>
